<svg class="main-svg" xmlns="http://www.w3.org/2000/svg" xmlns:xlink="http://www.w3.org/1999/xlink" width="808.594" height="450" style="background: rgb(255, 255, 255);"><defs id="defs-acd931"><g class="gradients"></g><g class="clips"><clipPath class="axesclip" id="clipacd931x"><rect x="80" y="0" width="525" height="450"></rect></clipPath><clipPath class="axesclip" id="clipacd931y"><rect x="0" y="100" width="808.594" height="270"></rect></clipPath><clipPath class="axesclip" id="clipacd931xy"><rect x="80" y="100" width="525" height="270"></rect></clipPath><clipPath class="plotclip" id="clipacd931xyplot" transform="translate(0, 0) scale(1, 1)"><rect width="525" height="270"></rect></clipPath></g></defs><g class="bglayer"><rect class="bg" x="80" y="100" width="525" height="270" style="fill: rgb(255, 255, 255); fill-opacity: 1; stroke-width: 0;"></rect></g><g class="draglayer"><g class="xy" transform="translate(80,100)"><rect class="drag nsewdrag cursor-crosshair" data-subplot="xy" x="0" y="0" width="525" height="270" style="fill: transparent; stroke-width: 0; pointer-events: all;"></rect><rect class="drag nwdrag cursor-nw-resize" data-subplot="xy" x="-20" y="-20" width="20" height="20" style="fill: transparent; stroke-width: 0; pointer-events: all;"></rect><rect class="drag nedrag cursor-ne-resize" data-subplot="xy" x="525" y="-20" width="20" height="20" style="fill: transparent; stroke-width: 0; pointer-events: all;"></rect><rect class="drag swdrag cursor-sw-resize" data-subplot="xy" x="-20" y="270" width="20" height="20" style="fill: transparent; stroke-width: 0; pointer-events: all;"></rect><rect class="drag sedrag cursor-se-resize" data-subplot="xy" x="525" y="270" width="20" height="20" style="fill: transparent; stroke-width: 0; pointer-events: all;"></rect><rect class="drag ewdrag cursor-ew-resize" data-subplot="xy" x="52.5" y="270.5" width="420" height="20" style="fill: transparent; stroke-width: 0; pointer-events: all;"></rect><rect class="drag wdrag cursor-w-resize" data-subplot="xy" x="0" y="270.5" width="52.5" height="20" style="fill: transparent; stroke-width: 0; pointer-events: all;"></rect><rect class="drag edrag cursor-e-resize" data-subplot="xy" x="472.5" y="270.5" width="52.5" height="20" style="fill: transparent; stroke-width: 0; pointer-events: all;"></rect><rect class="drag nsdrag cursor-ns-resize" data-subplot="xy" x="-20.5" y="27" width="20" height="216" style="fill: transparent; stroke-width: 0; pointer-events: all;"></rect><rect class="drag sdrag cursor-s-resize" data-subplot="xy" x="-20.5" y="243" width="20" height="27" style="fill: transparent; stroke-width: 0; pointer-events: all;"></rect><rect class="drag ndrag cursor-n-resize" data-subplot="xy" x="-20.5" y="0" width="20" height="27" style="fill: transparent; stroke-width: 0; pointer-events: all;"></rect></g></g><g class="layer-below"><g class="imagelayer"></g><g class="shapelayer"></g></g><g class="cartesianlayer"><g class="subplot xy"><g class="layer-subplot"><g class="shapelayer"></g><g class="imagelayer"></g></g><g class="gridlayer" transform="translate(80,100)"><path class="xgrid crisp" d="M0,0v270" transform="translate(122.25,0)" style="stroke: rgb(238, 238, 238); stroke-opacity: 1; stroke-width: 1px;"></path><path class="xgrid crisp" d="M0,0v270" transform="translate(215.44,0)" style="stroke: rgb(238, 238, 238); stroke-opacity: 1; stroke-width: 1px;"></path><path class="xgrid crisp" d="M0,0v270" transform="translate(308.63,0)" style="stroke: rgb(238, 238, 238); stroke-opacity: 1; stroke-width: 1px;"></path><path class="xgrid crisp" d="M0,0v270" transform="translate(401.81,0)" style="stroke: rgb(238, 238, 238); stroke-opacity: 1; stroke-width: 1px;"></path><path class="xgrid crisp" d="M0,0v270" transform="translate(495,0)" style="stroke: rgb(238, 238, 238); stroke-opacity: 1; stroke-width: 1px;"></path><path class="ygrid crisp" d="M0,0h525" transform="translate(0,217.41)" style="stroke: rgb(238, 238, 238); stroke-opacity: 1; stroke-width: 1px;"></path><path class="ygrid crisp" d="M0,0h525" transform="translate(0,181.52)" style="stroke: rgb(238, 238, 238); stroke-opacity: 1; stroke-width: 1px;"></path><path class="ygrid crisp" d="M0,0h525" transform="translate(0,145.62)" style="stroke: rgb(238, 238, 238); stroke-opacity: 1; stroke-width: 1px;"></path><path class="ygrid crisp" d="M0,0h525" transform="translate(0,109.73)" style="stroke: rgb(238, 238, 238); stroke-opacity: 1; stroke-width: 1px;"></path><path class="ygrid crisp" d="M0,0h525" transform="translate(0,73.83)" style="stroke: rgb(238, 238, 238); stroke-opacity: 1; stroke-width: 1px;"></path><path class="ygrid crisp" d="M0,0h525" transform="translate(0,37.94)" style="stroke: rgb(238, 238, 238); stroke-opacity: 1; stroke-width: 1px;"></path><path class="ygrid crisp" d="M0,0h525" transform="translate(0,2.05)" style="stroke: rgb(238, 238, 238); stroke-opacity: 1; stroke-width: 1px;"></path></g><g class="overgrid"></g><g class="zerolinelayer" transform="translate(80,100)"><path class="xzl zl crisp" d="M0,0v270" transform="translate(29.07,0)" style="stroke: rgb(68, 68, 68); stroke-opacity: 1; stroke-width: 1px;"></path><path class="yzl zl crisp" d="M0,0h525" transform="translate(0,253.3)" style="stroke: rgb(68, 68, 68); stroke-opacity: 1; stroke-width: 1px;"></path></g><g class="overzero"></g><g class="plot" transform="scale(1, 1) translate(80, 100)" clip-path="url(#clipacd931xyplot)"><g class="imagelayer"></g><g class="maplayer"></g><g class="barlayer"></g><g class="carpetlayer"></g><g class="boxlayer"></g><g class="scatterlayer"><g class="trace scatter tracebe814d" style="stroke-miterlimit: 2; opacity: 1;"><path class="js-line" d="M30,246.69L495,13.5" style="vector-effect: non-scaling-stroke; fill: none; stroke: rgb(31, 119, 180); stroke-opacity: 1; stroke-width: 2px; opacity: 1;"></path><g class="points"></g></g><g class="trace scatter trace8afca9" style="stroke-miterlimit: 2; opacity: 1;"><g class="points"><path class="point" d="M3,0A3,3 0 1,1 0,-3A3,3 0 0,1 3,0Z" transform="translate(30,252.75)" style="opacity: 1; stroke-width: 0px; fill: rgb(255, 127, 14); fill-opacity: 1;"></path><path class="point" d="M3,0A3,3 0 1,1 0,-3A3,3 0 0,1 3,0Z" transform="translate(38.39,247.79)" style="opacity: 1; stroke-width: 0px; fill: rgb(255, 127, 14); fill-opacity: 1;"></path><path class="point" d="M3,0A3,3 0 1,1 0,-3A3,3 0 0,1 3,0Z" transform="translate(47.71,242.29)" style="opacity: 1; stroke-width: 0px; fill: rgb(255, 127, 14); fill-opacity: 1;"></path><path class="point" d="M3,0A3,3 0 1,1 0,-3A3,3 0 0,1 3,0Z" transform="translate(57.02,236.82)" style="opacity: 1; stroke-width: 0px; fill: rgb(255, 127, 14); fill-opacity: 1;"></path><path class="point" d="M3,0A3,3 0 1,1 0,-3A3,3 0 0,1 3,0Z" transform="translate(66.34,231.37)" style="opacity: 1; stroke-width: 0px; fill: rgb(255, 127, 14); fill-opacity: 1;"></path><path class="point" d="M3,0A3,3 0 1,1 0,-3A3,3 0 0,1 3,0Z" transform="translate(75.66,225.94)" style="opacity: 1; stroke-width: 0px; fill: rgb(255, 127, 14); fill-opacity: 1;"></path><path class="point" d="M3,0A3,3 0 1,1 0,-3A3,3 0 0,1 3,0Z" transform="translate(84.98,220.55)" style="opacity: 1; stroke-width: 0px; fill: rgb(255, 127, 14); fill-opacity: 1;"></path><path class="point" d="M3,0A3,3 0 1,1 0,-3A3,3 0 0,1 3,0Z" transform="translate(103.62,209.84)" style="opacity: 1; stroke-width: 0px; fill: rgb(255, 127, 14); fill-opacity: 1;"></path><path class="point" d="M3,0A3,3 0 1,1 0,-3A3,3 0 0,1 3,0Z" transform="translate(122.25,199.24)" style="opacity: 1; stroke-width: 0px; fill: rgb(255, 127, 14); fill-opacity: 1;"></path><path class="point" d="M3,0A3,3 0 1,1 0,-3A3,3 0 0,1 3,0Z" transform="translate(140.89,188.77)" style="opacity: 1; stroke-width: 0px; fill: rgb(255, 127, 14); fill-opacity: 1;"></path><path class="point" d="M3,0A3,3 0 1,1 0,-3A3,3 0 0,1 3,0Z" transform="translate(178.17,168.24)" style="opacity: 1; stroke-width: 0px; fill: rgb(255, 127, 14); fill-opacity: 1;"></path><path class="point" d="M3,0A3,3 0 1,1 0,-3A3,3 0 0,1 3,0Z" transform="translate(215.44,148.31)" style="opacity: 1; stroke-width: 0px; fill: rgb(255, 127, 14); fill-opacity: 1;"></path><path class="point" d="M3,0A3,3 0 1,1 0,-3A3,3 0 0,1 3,0Z" transform="translate(262.03,124.26)" style="opacity: 1; stroke-width: 0px; fill: rgb(255, 127, 14); fill-opacity: 1;"></path><path class="point" d="M3,0A3,3 0 1,1 0,-3A3,3 0 0,1 3,0Z" transform="translate(308.63,101.26)" style="opacity: 1; stroke-width: 0px; fill: rgb(255, 127, 14); fill-opacity: 1;"></path><path class="point" d="M3,0A3,3 0 1,1 0,-3A3,3 0 0,1 3,0Z" transform="translate(355.22,79.3)" style="opacity: 1; stroke-width: 0px; fill: rgb(255, 127, 14); fill-opacity: 1;"></path><path class="point" d="M3,0A3,3 0 1,1 0,-3A3,3 0 0,1 3,0Z" transform="translate(401.81,58.38)" style="opacity: 1; stroke-width: 0px; fill: rgb(255, 127, 14); fill-opacity: 1;"></path><path class="point" d="M3,0A3,3 0 1,1 0,-3A3,3 0 0,1 3,0Z" transform="translate(448.41,38.48)" style="opacity: 1; stroke-width: 0px; fill: rgb(255, 127, 14); fill-opacity: 1;"></path><path class="point" d="M3,0A3,3 0 1,1 0,-3A3,3 0 0,1 3,0Z" transform="translate(495,19.56)" style="opacity: 1; stroke-width: 0px; fill: rgb(255, 127, 14); fill-opacity: 1;"></path></g></g><g class="trace scatter trace6eadcd" style="stroke-miterlimit: 2; opacity: 1;"><g class="points"><path class="point" d="M3,0A3,3 0 1,1 0,-3A3,3 0 0,1 3,0Z" transform="translate(30,252.75)" style="opacity: 1; stroke-width: 0px; fill: rgb(44, 160, 44); fill-opacity: 1;"></path><path class="point" d="M3,0A3,3 0 1,1 0,-3A3,3 0 0,1 3,0Z" transform="translate(262.03,124.26)" style="opacity: 1; stroke-width: 0px; fill: rgb(44, 160, 44); fill-opacity: 1;"></path><path class="point" d="M3,0A3,3 0 1,1 0,-3A3,3 0 0,1 3,0Z" transform="translate(495,19.56)" style="opacity: 1; stroke-width: 0px; fill: rgb(44, 160, 44); fill-opacity: 1;"></path></g></g><g class="trace scatter trace842fd0" style="stroke-miterlimit: 2; opacity: 1;"><path class="js-line" d="M262.03,130.33L262.03,124.26" style="vector-effect: non-scaling-stroke; fill: none; stroke: rgb(214, 39, 40); stroke-opacity: 1; stroke-width: 2px; opacity: 1;"></path><g class="points"></g></g></g></g><g class="overplot"></g><path class="xlines crisp" transform="translate(80,100)" d="M-1,270.5h527" style="fill: none; stroke-width: 1px; stroke: rgb(0, 0, 0); stroke-opacity: 0;"></path><path class="ylines crisp" transform="translate(80,100)" d="M-0.5,-1v271" stroke-width="1px" style="fill: none; stroke: rgb(0, 0, 0); stroke-opacity: 0;"></path><g class="overlines"></g><g class="xaxislayer" transform="translate(80,100)"><g class="xtick" data-bb="1036"><text text-anchor="middle" x="0" y="284" transform="translate(29.07,0)" style="font-family: &quot;Open Sans&quot;, verdana, arial, sans-serif; font-size: 12px; fill: rgb(68, 68, 68); fill-opacity: 1; visibility: inherit; white-space: pre;" data-bb="1029">0</text></g><g class="xtick" data-bb="1037"><text text-anchor="middle" x="0" y="284" transform="translate(122.25,0)" style="font-family: &quot;Open Sans&quot;, verdana, arial, sans-serif; font-size: 12px; fill: rgb(68, 68, 68); fill-opacity: 1; visibility: inherit; white-space: pre;" data-bb="1030">10</text></g><g class="xtick" data-bb="1038"><text text-anchor="middle" x="0" y="284" transform="translate(215.44,0)" style="font-family: &quot;Open Sans&quot;, verdana, arial, sans-serif; font-size: 12px; fill: rgb(68, 68, 68); fill-opacity: 1; visibility: inherit; white-space: pre;" data-bb="1031">20</text></g><g class="xtick" data-bb="1039"><text text-anchor="middle" x="0" y="284" transform="translate(308.63,0)" style="font-family: &quot;Open Sans&quot;, verdana, arial, sans-serif; font-size: 12px; fill: rgb(68, 68, 68); fill-opacity: 1; visibility: inherit; white-space: pre;" data-bb="1032">30</text></g><g class="xtick" data-bb="1040"><text text-anchor="middle" x="0" y="284" transform="translate(401.81,0)" style="font-family: &quot;Open Sans&quot;, verdana, arial, sans-serif; font-size: 12px; fill: rgb(68, 68, 68); fill-opacity: 1; visibility: inherit; white-space: pre;" data-bb="1033">40</text></g><g class="xtick" data-bb="1041"><text text-anchor="middle" x="0" y="284" transform="translate(495,0)" style="font-family: &quot;Open Sans&quot;, verdana, arial, sans-serif; font-size: 12px; fill: rgb(68, 68, 68); fill-opacity: 1; visibility: inherit; white-space: pre;" data-bb="1034">50</text></g></g><g class="yaxislayer" transform="translate(80,100)"><g class="ytick" data-bb="1043"><text text-anchor="end" x="-2" y="6" transform="translate(0,253.3)" style="font-family: &quot;Open Sans&quot;, verdana, arial, sans-serif; font-size: 12px; fill: rgb(68, 68, 68); fill-opacity: 1; visibility: inherit; white-space: pre;">0</text></g><g class="ytick" data-bb="1044"><text text-anchor="end" x="-2" y="6" transform="translate(0,217.41)" style="font-family: &quot;Open Sans&quot;, verdana, arial, sans-serif; font-size: 12px; fill: rgb(68, 68, 68); fill-opacity: 1; visibility: inherit; white-space: pre;">50</text></g><g class="ytick" data-bb="1045"><text text-anchor="end" x="-2" y="6" transform="translate(0,181.52)" style="font-family: &quot;Open Sans&quot;, verdana, arial, sans-serif; font-size: 12px; fill: rgb(68, 68, 68); fill-opacity: 1; visibility: inherit; white-space: pre;">100</text></g><g class="ytick" data-bb="1046"><text text-anchor="end" x="-2" y="6" transform="translate(0,145.62)" style="font-family: &quot;Open Sans&quot;, verdana, arial, sans-serif; font-size: 12px; fill: rgb(68, 68, 68); fill-opacity: 1; visibility: inherit; white-space: pre;">150</text></g><g class="ytick" data-bb="1047"><text text-anchor="end" x="-2" y="6" transform="translate(0,109.73)" style="font-family: &quot;Open Sans&quot;, verdana, arial, sans-serif; font-size: 12px; fill: rgb(68, 68, 68); fill-opacity: 1; visibility: inherit; white-space: pre;">200</text></g><g class="ytick" data-bb="1048"><text text-anchor="end" x="-2" y="6" transform="translate(0,73.83)" style="font-family: &quot;Open Sans&quot;, verdana, arial, sans-serif; font-size: 12px; fill: rgb(68, 68, 68); fill-opacity: 1; visibility: inherit; white-space: pre;">250</text></g><g class="ytick" data-bb="1049"><text text-anchor="end" x="-2" y="6" transform="translate(0,37.94)" style="font-family: &quot;Open Sans&quot;, verdana, arial, sans-serif; font-size: 12px; fill: rgb(68, 68, 68); fill-opacity: 1; visibility: inherit; white-space: pre;">300</text></g><g class="ytick" data-bb="1050"><text text-anchor="end" x="-2" y="6" transform="translate(0,2.05)" style="font-family: &quot;Open Sans&quot;, verdana, arial, sans-serif; font-size: 12px; fill: rgb(68, 68, 68); fill-opacity: 1; visibility: inherit; white-space: pre;">350</text></g></g><g class="overaxes"></g></g></g><g class="ternarylayer"></g><g class="geolayer"></g><g class="layer-above"><g class="imagelayer"></g><g class="shapelayer"></g></g><g class="pielayer"></g><g class="glimages"></g></svg>