<svg class="main-svg" xmlns="http://www.w3.org/2000/svg" xmlns:xlink="http://www.w3.org/1999/xlink" width="840.594" height="450" style="background: rgb(255, 255, 255);"><defs id="defs-b6fee5"><g class="gradients"></g><g class="clips"><clipPath class="axesclip" id="clipb6fee5x"><rect x="80" y="0" width="556" height="450"></rect></clipPath><clipPath class="axesclip" id="clipb6fee5y"><rect x="0" y="100" width="840.594" height="270"></rect></clipPath><clipPath class="axesclip" id="clipb6fee5xy"><rect x="80" y="100" width="556" height="270"></rect></clipPath><clipPath class="plotclip" id="clipb6fee5xyplot"><rect width="556" height="270"></rect></clipPath></g></defs><g class="bglayer"><rect class="bg" x="80" y="100" width="556" height="270" style="fill: rgb(255, 255, 255); fill-opacity: 1; stroke-width: 0;"></rect></g><g class="draglayer"><g class="xy" transform="translate(80,100)"><rect class="drag nsewdrag cursor-crosshair" data-subplot="xy" x="0" y="0" width="556" height="270" style="fill: transparent; stroke-width: 0; pointer-events: all;"></rect><rect class="drag nwdrag cursor-nw-resize" data-subplot="xy" x="-20" y="-20" width="20" height="20" style="fill: transparent; stroke-width: 0; pointer-events: all;"></rect><rect class="drag nedrag cursor-ne-resize" data-subplot="xy" x="556" y="-20" width="20" height="20" style="fill: transparent; stroke-width: 0; pointer-events: all;"></rect><rect class="drag swdrag cursor-sw-resize" data-subplot="xy" x="-20" y="270" width="20" height="20" style="fill: transparent; stroke-width: 0; pointer-events: all;"></rect><rect class="drag sedrag cursor-se-resize" data-subplot="xy" x="556" y="270" width="20" height="20" style="fill: transparent; stroke-width: 0; pointer-events: all;"></rect><rect class="drag ewdrag cursor-ew-resize" data-subplot="xy" x="55.6" y="270.5" width="444.8" height="20" style="fill: transparent; stroke-width: 0; pointer-events: all;"></rect><rect class="drag wdrag cursor-w-resize" data-subplot="xy" x="0" y="270.5" width="55.6" height="20" style="fill: transparent; stroke-width: 0; pointer-events: all;"></rect><rect class="drag edrag cursor-e-resize" data-subplot="xy" x="500.40000000000003" y="270.5" width="55.6" height="20" style="fill: transparent; stroke-width: 0; pointer-events: all;"></rect><rect class="drag nsdrag cursor-ns-resize" data-subplot="xy" x="-20.5" y="27" width="20" height="216" style="fill: transparent; stroke-width: 0; pointer-events: all;"></rect><rect class="drag sdrag cursor-s-resize" data-subplot="xy" x="-20.5" y="243" width="20" height="27" style="fill: transparent; stroke-width: 0; pointer-events: all;"></rect><rect class="drag ndrag cursor-n-resize" data-subplot="xy" x="-20.5" y="0" width="20" height="27" style="fill: transparent; stroke-width: 0; pointer-events: all;"></rect></g></g><g class="layer-below"><g class="imagelayer"></g><g class="shapelayer"></g></g><g class="cartesianlayer"><g class="subplot xy"><g class="layer-subplot"><g class="shapelayer"></g><g class="imagelayer"></g></g><g class="gridlayer" transform="translate(80,100)"><path class="xgrid crisp" d="M0,0v270" transform="translate(133.11,0)" style="stroke: rgb(238, 238, 238); stroke-opacity: 1; stroke-width: 1px;"></path><path class="xgrid crisp" d="M0,0v270" transform="translate(229.38,0)" style="stroke: rgb(238, 238, 238); stroke-opacity: 1; stroke-width: 1px;"></path><path class="xgrid crisp" d="M0,0v270" transform="translate(325.65,0)" style="stroke: rgb(238, 238, 238); stroke-opacity: 1; stroke-width: 1px;"></path><path class="xgrid crisp" d="M0,0v270" transform="translate(421.93,0)" style="stroke: rgb(238, 238, 238); stroke-opacity: 1; stroke-width: 1px;"></path><path class="xgrid crisp" d="M0,0v270" transform="translate(518.2,0)" style="stroke: rgb(238, 238, 238); stroke-opacity: 1; stroke-width: 1px;"></path><path class="ygrid crisp" d="M0,0h556" transform="translate(0,217.78)" style="stroke: rgb(238, 238, 238); stroke-opacity: 1; stroke-width: 1px;"></path><path class="ygrid crisp" d="M0,0h556" transform="translate(0,182.27)" style="stroke: rgb(238, 238, 238); stroke-opacity: 1; stroke-width: 1px;"></path><path class="ygrid crisp" d="M0,0h556" transform="translate(0,146.76)" style="stroke: rgb(238, 238, 238); stroke-opacity: 1; stroke-width: 1px;"></path><path class="ygrid crisp" d="M0,0h556" transform="translate(0,111.25)" style="stroke: rgb(238, 238, 238); stroke-opacity: 1; stroke-width: 1px;"></path><path class="ygrid crisp" d="M0,0h556" transform="translate(0,75.73)" style="stroke: rgb(238, 238, 238); stroke-opacity: 1; stroke-width: 1px;"></path><path class="ygrid crisp" d="M0,0h556" transform="translate(0,40.22)" style="stroke: rgb(238, 238, 238); stroke-opacity: 1; stroke-width: 1px;"></path><path class="ygrid crisp" d="M0,0h556" transform="translate(0,4.71)" style="stroke: rgb(238, 238, 238); stroke-opacity: 1; stroke-width: 1px;"></path></g><g class="overgrid"></g><g class="zerolinelayer" transform="translate(80,100)"><path class="xzl zl crisp" d="M0,0v270" transform="translate(36.84,0)" style="stroke: rgb(68, 68, 68); stroke-opacity: 1; stroke-width: 1px;"></path><path class="yzl zl crisp" d="M0,0h556" transform="translate(0,253.3)" style="stroke: rgb(68, 68, 68); stroke-opacity: 1; stroke-width: 1px;"></path></g><g class="overzero"></g><g class="plot" transform="translate(80, 100)" clip-path="url(#clipb6fee5xyplot)"><g class="imagelayer"></g><g class="maplayer"></g><g class="barlayer"></g><g class="carpetlayer"></g><g class="boxlayer"></g><g class="scatterlayer"><g class="trace scatter trace2eb319" style="stroke-miterlimit: 2; opacity: 1;"><path class="js-line" d="M37.8,248.33L518.2,13.5" style="vector-effect: non-scaling-stroke; fill: none; stroke: rgb(31, 119, 180); stroke-opacity: 1; stroke-width: 2px; opacity: 1;"></path><g class="points"></g></g><g class="trace scatter trace327837" style="stroke-miterlimit: 2; opacity: 1;"><g class="points"><path class="point" d="M3,0A3,3 0 1,1 0,-3A3,3 0 0,1 3,0Z" transform="translate(37.8,252.75)" style="opacity: 1; stroke-width: 0px; fill: rgb(255, 127, 14); fill-opacity: 1;"></path><path class="point" d="M3,0A3,3 0 1,1 0,-3A3,3 0 0,1 3,0Z" transform="translate(46.46,247.84)" style="opacity: 1; stroke-width: 0px; fill: rgb(255, 127, 14); fill-opacity: 1;"></path><path class="point" d="M3,0A3,3 0 1,1 0,-3A3,3 0 0,1 3,0Z" transform="translate(56.09,242.4)" style="opacity: 1; stroke-width: 0px; fill: rgb(255, 127, 14); fill-opacity: 1;"></path><path class="point" d="M3,0A3,3 0 1,1 0,-3A3,3 0 0,1 3,0Z" transform="translate(65.72,236.99)" style="opacity: 1; stroke-width: 0px; fill: rgb(255, 127, 14); fill-opacity: 1;"></path><path class="point" d="M3,0A3,3 0 1,1 0,-3A3,3 0 0,1 3,0Z" transform="translate(75.35,231.6)" style="opacity: 1; stroke-width: 0px; fill: rgb(255, 127, 14); fill-opacity: 1;"></path><path class="point" d="M3,0A3,3 0 1,1 0,-3A3,3 0 0,1 3,0Z" transform="translate(84.97,226.23)" style="opacity: 1; stroke-width: 0px; fill: rgb(255, 127, 14); fill-opacity: 1;"></path><path class="point" d="M3,0A3,3 0 1,1 0,-3A3,3 0 0,1 3,0Z" transform="translate(94.6,220.89)" style="opacity: 1; stroke-width: 0px; fill: rgb(255, 127, 14); fill-opacity: 1;"></path><path class="point" d="M3,0A3,3 0 1,1 0,-3A3,3 0 0,1 3,0Z" transform="translate(113.86,210.29)" style="opacity: 1; stroke-width: 0px; fill: rgb(255, 127, 14); fill-opacity: 1;"></path><path class="point" d="M3,0A3,3 0 1,1 0,-3A3,3 0 0,1 3,0Z" transform="translate(133.11,199.81)" style="opacity: 1; stroke-width: 0px; fill: rgb(255, 127, 14); fill-opacity: 1;"></path><path class="point" d="M3,0A3,3 0 1,1 0,-3A3,3 0 0,1 3,0Z" transform="translate(152.36,189.45)" style="opacity: 1; stroke-width: 0px; fill: rgb(255, 127, 14); fill-opacity: 1;"></path><path class="point" d="M3,0A3,3 0 1,1 0,-3A3,3 0 0,1 3,0Z" transform="translate(190.87,169.14)" style="opacity: 1; stroke-width: 0px; fill: rgb(255, 127, 14); fill-opacity: 1;"></path><path class="point" d="M3,0A3,3 0 1,1 0,-3A3,3 0 0,1 3,0Z" transform="translate(229.38,149.41)" style="opacity: 1; stroke-width: 0px; fill: rgb(255, 127, 14); fill-opacity: 1;"></path><path class="point" d="M3,0A3,3 0 1,1 0,-3A3,3 0 0,1 3,0Z" transform="translate(277.52,125.63)" style="opacity: 1; stroke-width: 0px; fill: rgb(255, 127, 14); fill-opacity: 1;"></path><path class="point" d="M3,0A3,3 0 1,1 0,-3A3,3 0 0,1 3,0Z" transform="translate(325.65,102.86)" style="opacity: 1; stroke-width: 0px; fill: rgb(255, 127, 14); fill-opacity: 1;"></path><path class="point" d="M3,0A3,3 0 1,1 0,-3A3,3 0 0,1 3,0Z" transform="translate(373.79,81.14)" style="opacity: 1; stroke-width: 0px; fill: rgb(255, 127, 14); fill-opacity: 1;"></path><path class="point" d="M3,0A3,3 0 1,1 0,-3A3,3 0 0,1 3,0Z" transform="translate(421.93,60.44)" style="opacity: 1; stroke-width: 0px; fill: rgb(255, 127, 14); fill-opacity: 1;"></path><path class="point" d="M3,0A3,3 0 1,1 0,-3A3,3 0 0,1 3,0Z" transform="translate(470.06,40.75)" style="opacity: 1; stroke-width: 0px; fill: rgb(255, 127, 14); fill-opacity: 1;"></path><path class="point" d="M3,0A3,3 0 1,1 0,-3A3,3 0 0,1 3,0Z" transform="translate(518.2,22.04)" style="opacity: 1; stroke-width: 0px; fill: rgb(255, 127, 14); fill-opacity: 1;"></path></g></g><g class="trace scatter trace1c3b48" style="stroke-miterlimit: 2; opacity: 1;"><path class="js-line" d="M518.2,13.5L518.2,22.04" style="vector-effect: non-scaling-stroke; fill: none; stroke: rgb(44, 160, 44); stroke-opacity: 1; stroke-width: 2px; opacity: 1;"></path><g class="points"></g></g></g></g><g class="overplot"></g><path class="xlines crisp" transform="translate(80,100)" d="M-1,270.5h558" style="fill: none; stroke-width: 1px; stroke: rgb(0, 0, 0); stroke-opacity: 0;"></path><path class="ylines crisp" transform="translate(80,100)" d="M-0.5,-1v271" stroke-width="1px" style="fill: none; stroke: rgb(0, 0, 0); stroke-opacity: 0;"></path><g class="overlines"></g><g class="xaxislayer" transform="translate(80,100)"><g class="xtick" data-bb="1092"><text text-anchor="middle" x="0" y="284" transform="translate(36.84,0)" style="font-family: &quot;Open Sans&quot;, verdana, arial, sans-serif; font-size: 12px; fill: rgb(68, 68, 68); fill-opacity: 1; visibility: inherit; white-space: pre;" data-bb="1085">0</text></g><g class="xtick" data-bb="1093"><text text-anchor="middle" x="0" y="284" transform="translate(133.11,0)" style="font-family: &quot;Open Sans&quot;, verdana, arial, sans-serif; font-size: 12px; fill: rgb(68, 68, 68); fill-opacity: 1; visibility: inherit; white-space: pre;" data-bb="1086">10</text></g><g class="xtick" data-bb="1094"><text text-anchor="middle" x="0" y="284" transform="translate(229.38,0)" style="font-family: &quot;Open Sans&quot;, verdana, arial, sans-serif; font-size: 12px; fill: rgb(68, 68, 68); fill-opacity: 1; visibility: inherit; white-space: pre;" data-bb="1087">20</text></g><g class="xtick" data-bb="1095"><text text-anchor="middle" x="0" y="284" transform="translate(325.65,0)" style="font-family: &quot;Open Sans&quot;, verdana, arial, sans-serif; font-size: 12px; fill: rgb(68, 68, 68); fill-opacity: 1; visibility: inherit; white-space: pre;" data-bb="1088">30</text></g><g class="xtick" data-bb="1096"><text text-anchor="middle" x="0" y="284" transform="translate(421.93,0)" style="font-family: &quot;Open Sans&quot;, verdana, arial, sans-serif; font-size: 12px; fill: rgb(68, 68, 68); fill-opacity: 1; visibility: inherit; white-space: pre;" data-bb="1089">40</text></g><g class="xtick" data-bb="1097"><text text-anchor="middle" x="0" y="284" transform="translate(518.2,0)" style="font-family: &quot;Open Sans&quot;, verdana, arial, sans-serif; font-size: 12px; fill: rgb(68, 68, 68); fill-opacity: 1; visibility: inherit; white-space: pre;" data-bb="1090">50</text></g></g><g class="yaxislayer" transform="translate(80,100)"><g class="ytick" data-bb="1099"><text text-anchor="end" x="-2" y="6" transform="translate(0,253.3)" style="font-family: &quot;Open Sans&quot;, verdana, arial, sans-serif; font-size: 12px; fill: rgb(68, 68, 68); fill-opacity: 1; visibility: inherit; white-space: pre;">0</text></g><g class="ytick" data-bb="1100"><text text-anchor="end" x="-2" y="6" transform="translate(0,217.78)" style="font-family: &quot;Open Sans&quot;, verdana, arial, sans-serif; font-size: 12px; fill: rgb(68, 68, 68); fill-opacity: 1; visibility: inherit; white-space: pre;">50</text></g><g class="ytick" data-bb="1101"><text text-anchor="end" x="-2" y="6" transform="translate(0,182.27)" style="font-family: &quot;Open Sans&quot;, verdana, arial, sans-serif; font-size: 12px; fill: rgb(68, 68, 68); fill-opacity: 1; visibility: inherit; white-space: pre;">100</text></g><g class="ytick" data-bb="1102"><text text-anchor="end" x="-2" y="6" transform="translate(0,146.76)" style="font-family: &quot;Open Sans&quot;, verdana, arial, sans-serif; font-size: 12px; fill: rgb(68, 68, 68); fill-opacity: 1; visibility: inherit; white-space: pre;">150</text></g><g class="ytick" data-bb="1103"><text text-anchor="end" x="-2" y="6" transform="translate(0,111.25)" style="font-family: &quot;Open Sans&quot;, verdana, arial, sans-serif; font-size: 12px; fill: rgb(68, 68, 68); fill-opacity: 1; visibility: inherit; white-space: pre;">200</text></g><g class="ytick" data-bb="1104"><text text-anchor="end" x="-2" y="6" transform="translate(0,75.73)" style="font-family: &quot;Open Sans&quot;, verdana, arial, sans-serif; font-size: 12px; fill: rgb(68, 68, 68); fill-opacity: 1; visibility: inherit; white-space: pre;">250</text></g><g class="ytick" data-bb="1105"><text text-anchor="end" x="-2" y="6" transform="translate(0,40.22)" style="font-family: &quot;Open Sans&quot;, verdana, arial, sans-serif; font-size: 12px; fill: rgb(68, 68, 68); fill-opacity: 1; visibility: inherit; white-space: pre;">300</text></g><g class="ytick" data-bb="1106"><text text-anchor="end" x="-2" y="6" transform="translate(0,4.71)" style="font-family: &quot;Open Sans&quot;, verdana, arial, sans-serif; font-size: 12px; fill: rgb(68, 68, 68); fill-opacity: 1; visibility: inherit; white-space: pre;">350</text></g></g><g class="overaxes"></g></g></g><g class="ternarylayer"></g><g class="geolayer"></g><g class="layer-above"><g class="imagelayer"></g><g class="shapelayer"></g></g><g class="pielayer"></g><g class="glimages"></g></svg>