<svg class="main-svg" xmlns="http://www.w3.org/2000/svg" xmlns:xlink="http://www.w3.org/1999/xlink" width="808.594" height="450" style="background: rgb(255, 255, 255);"><defs id="defs-b4efe9"><g class="gradients"></g><g class="clips"><clipPath class="axesclip" id="clipb4efe9x"><rect x="80" y="0" width="525" height="450"></rect></clipPath><clipPath class="axesclip" id="clipb4efe9y"><rect x="0" y="100" width="808.594" height="270"></rect></clipPath><clipPath class="axesclip" id="clipb4efe9xy"><rect x="80" y="100" width="525" height="270"></rect></clipPath><clipPath class="plotclip" id="clipb4efe9xyplot"><rect width="525" height="270"></rect></clipPath></g></defs><g class="bglayer"><rect class="bg" x="80" y="100" width="525" height="270" style="fill: rgb(255, 255, 255); fill-opacity: 1; stroke-width: 0;"></rect></g><g class="draglayer"><g class="xy" transform="translate(80,100)"><rect class="drag nsewdrag cursor-crosshair" data-subplot="xy" x="0" y="0" width="525" height="270" style="fill: transparent; stroke-width: 0; pointer-events: all;"></rect><rect class="drag nwdrag cursor-nw-resize" data-subplot="xy" x="-20" y="-20" width="20" height="20" style="fill: transparent; stroke-width: 0; pointer-events: all;"></rect><rect class="drag nedrag cursor-ne-resize" data-subplot="xy" x="525" y="-20" width="20" height="20" style="fill: transparent; stroke-width: 0; pointer-events: all;"></rect><rect class="drag swdrag cursor-sw-resize" data-subplot="xy" x="-20" y="270" width="20" height="20" style="fill: transparent; stroke-width: 0; pointer-events: all;"></rect><rect class="drag sedrag cursor-se-resize" data-subplot="xy" x="525" y="270" width="20" height="20" style="fill: transparent; stroke-width: 0; pointer-events: all;"></rect><rect class="drag ewdrag cursor-ew-resize" data-subplot="xy" x="52.5" y="270.5" width="420" height="20" style="fill: transparent; stroke-width: 0; pointer-events: all;"></rect><rect class="drag wdrag cursor-w-resize" data-subplot="xy" x="0" y="270.5" width="52.5" height="20" style="fill: transparent; stroke-width: 0; pointer-events: all;"></rect><rect class="drag edrag cursor-e-resize" data-subplot="xy" x="472.5" y="270.5" width="52.5" height="20" style="fill: transparent; stroke-width: 0; pointer-events: all;"></rect><rect class="drag nsdrag cursor-ns-resize" data-subplot="xy" x="-20.5" y="27" width="20" height="216" style="fill: transparent; stroke-width: 0; pointer-events: all;"></rect><rect class="drag sdrag cursor-s-resize" data-subplot="xy" x="-20.5" y="243" width="20" height="27" style="fill: transparent; stroke-width: 0; pointer-events: all;"></rect><rect class="drag ndrag cursor-n-resize" data-subplot="xy" x="-20.5" y="0" width="20" height="27" style="fill: transparent; stroke-width: 0; pointer-events: all;"></rect></g></g><g class="layer-below"><g class="imagelayer"></g><g class="shapelayer"></g></g><g class="cartesianlayer"><g class="subplot xy"><g class="layer-subplot"><g class="shapelayer"></g><g class="imagelayer"></g></g><g class="gridlayer" transform="translate(80,100)"><path class="xgrid crisp" d="M0,0v270" transform="translate(148.93,0)" style="stroke: rgb(238, 238, 238); stroke-opacity: 1; stroke-width: 1px;"></path><path class="xgrid crisp" d="M0,0v270" transform="translate(262.22,0)" style="stroke: rgb(238, 238, 238); stroke-opacity: 1; stroke-width: 1px;"></path><path class="xgrid crisp" d="M0,0v270" transform="translate(375.51,0)" style="stroke: rgb(238, 238, 238); stroke-opacity: 1; stroke-width: 1px;"></path><path class="xgrid crisp" d="M0,0v270" transform="translate(488.8,0)" style="stroke: rgb(238, 238, 238); stroke-opacity: 1; stroke-width: 1px;"></path><path class="ygrid crisp" d="M0,0h525" transform="translate(0,213.24)" style="stroke: rgb(238, 238, 238); stroke-opacity: 1; stroke-width: 1px;"></path><path class="ygrid crisp" d="M0,0h525" transform="translate(0,173.35)" style="stroke: rgb(238, 238, 238); stroke-opacity: 1; stroke-width: 1px;"></path><path class="ygrid crisp" d="M0,0h525" transform="translate(0,133.45)" style="stroke: rgb(238, 238, 238); stroke-opacity: 1; stroke-width: 1px;"></path><path class="ygrid crisp" d="M0,0h525" transform="translate(0,93.56)" style="stroke: rgb(238, 238, 238); stroke-opacity: 1; stroke-width: 1px;"></path><path class="ygrid crisp" d="M0,0h525" transform="translate(0,53.66)" style="stroke: rgb(238, 238, 238); stroke-opacity: 1; stroke-width: 1px;"></path><path class="ygrid crisp" d="M0,0h525" transform="translate(0,13.77)" style="stroke: rgb(238, 238, 238); stroke-opacity: 1; stroke-width: 1px;"></path></g><g class="overgrid"></g><g class="zerolinelayer" transform="translate(80,100)"><path class="xzl zl crisp" d="M0,0v270" transform="translate(35.63,0)" style="stroke: rgb(68, 68, 68); stroke-opacity: 1; stroke-width: 1px;"></path><path class="yzl zl crisp" d="M0,0h525" transform="translate(0,253.13)" style="stroke: rgb(68, 68, 68); stroke-opacity: 1; stroke-width: 1px;"></path></g><g class="overzero"></g><g class="plot" transform="translate(80, 100)" clip-path="url(#clipb4efe9xyplot)"><g class="imagelayer"></g><g class="maplayer"></g><g class="barlayer"></g><g class="carpetlayer"></g><g class="boxlayer"></g><g class="scatterlayer"><g class="trace scatter traced36f46" style="stroke-miterlimit: 2; opacity: 1;"><path class="js-line" d="M36.2,252.71L81.92,222.56L86.49,219.64L132.21,191.4L136.78,188.67L182.49,162.19L187.07,159.62L241.93,129.96L246.5,127.58L296.79,102.21L301.36,99.98L356.22,74.07L360.79,71.98L420.22,45.71L424.8,43.75L488.8,17.21" style="vector-effect: non-scaling-stroke; fill: none; stroke: rgb(31, 119, 180); stroke-opacity: 1; stroke-width: 2px; opacity: 1;"></path><g class="points"></g></g><g class="trace scatter trace5d2fe2" style="stroke-miterlimit: 2; opacity: 1;"><g class="points"><path class="point" d="M3,0A3,3 0 1,1 0,-3A3,3 0 0,1 3,0Z" transform="translate(36.2,252.75)" style="opacity: 1; stroke-width: 0px; fill: rgb(255, 127, 14); fill-opacity: 1;"></path><path class="point" d="M3,0A3,3 0 1,1 0,-3A3,3 0 0,1 3,0Z" transform="translate(41.3,249.28)" style="opacity: 1; stroke-width: 0px; fill: rgb(255, 127, 14); fill-opacity: 1;"></path><path class="point" d="M3,0A3,3 0 1,1 0,-3A3,3 0 0,1 3,0Z" transform="translate(46.96,245.46)" style="opacity: 1; stroke-width: 0px; fill: rgb(255, 127, 14); fill-opacity: 1;"></path><path class="point" d="M3,0A3,3 0 1,1 0,-3A3,3 0 0,1 3,0Z" transform="translate(52.63,241.66)" style="opacity: 1; stroke-width: 0px; fill: rgb(255, 127, 14); fill-opacity: 1;"></path><path class="point" d="M3,0A3,3 0 1,1 0,-3A3,3 0 0,1 3,0Z" transform="translate(58.29,237.9)" style="opacity: 1; stroke-width: 0px; fill: rgb(255, 127, 14); fill-opacity: 1;"></path><path class="point" d="M3,0A3,3 0 1,1 0,-3A3,3 0 0,1 3,0Z" transform="translate(63.96,234.17)" style="opacity: 1; stroke-width: 0px; fill: rgb(255, 127, 14); fill-opacity: 1;"></path><path class="point" d="M3,0A3,3 0 1,1 0,-3A3,3 0 0,1 3,0Z" transform="translate(69.62,230.47)" style="opacity: 1; stroke-width: 0px; fill: rgb(255, 127, 14); fill-opacity: 1;"></path><path class="point" d="M3,0A3,3 0 1,1 0,-3A3,3 0 0,1 3,0Z" transform="translate(80.95,223.14)" style="opacity: 1; stroke-width: 0px; fill: rgb(255, 127, 14); fill-opacity: 1;"></path><path class="point" d="M3,0A3,3 0 1,1 0,-3A3,3 0 0,1 3,0Z" transform="translate(92.28,215.93)" style="opacity: 1; stroke-width: 0px; fill: rgb(255, 127, 14); fill-opacity: 1;"></path><path class="point" d="M3,0A3,3 0 1,1 0,-3A3,3 0 0,1 3,0Z" transform="translate(103.61,208.83)" style="opacity: 1; stroke-width: 0px; fill: rgb(255, 127, 14); fill-opacity: 1;"></path><path class="point" d="M3,0A3,3 0 1,1 0,-3A3,3 0 0,1 3,0Z" transform="translate(126.27,194.94)" style="opacity: 1; stroke-width: 0px; fill: rgb(255, 127, 14); fill-opacity: 1;"></path><path class="point" d="M3,0A3,3 0 1,1 0,-3A3,3 0 0,1 3,0Z" transform="translate(148.93,181.47)" style="opacity: 1; stroke-width: 0px; fill: rgb(255, 127, 14); fill-opacity: 1;"></path><path class="point" d="M3,0A3,3 0 1,1 0,-3A3,3 0 0,1 3,0Z" transform="translate(177.25,165.16)" style="opacity: 1; stroke-width: 0px; fill: rgb(255, 127, 14); fill-opacity: 1;"></path><path class="point" d="M3,0A3,3 0 1,1 0,-3A3,3 0 0,1 3,0Z" transform="translate(205.57,149.43)" style="opacity: 1; stroke-width: 0px; fill: rgb(255, 127, 14); fill-opacity: 1;"></path><path class="point" d="M3,0A3,3 0 1,1 0,-3A3,3 0 0,1 3,0Z" transform="translate(233.89,134.23)" style="opacity: 1; stroke-width: 0px; fill: rgb(255, 127, 14); fill-opacity: 1;"></path><path class="point" d="M3,0A3,3 0 1,1 0,-3A3,3 0 0,1 3,0Z" transform="translate(262.22,119.53)" style="opacity: 1; stroke-width: 0px; fill: rgb(255, 127, 14); fill-opacity: 1;"></path><path class="point" d="M3,0A3,3 0 1,1 0,-3A3,3 0 0,1 3,0Z" transform="translate(290.54,105.32)" style="opacity: 1; stroke-width: 0px; fill: rgb(255, 127, 14); fill-opacity: 1;"></path><path class="point" d="M3,0A3,3 0 1,1 0,-3A3,3 0 0,1 3,0Z" transform="translate(318.86,91.56)" style="opacity: 1; stroke-width: 0px; fill: rgb(255, 127, 14); fill-opacity: 1;"></path><path class="point" d="M3,0A3,3 0 1,1 0,-3A3,3 0 0,1 3,0Z" transform="translate(375.51,65.3)" style="opacity: 1; stroke-width: 0px; fill: rgb(255, 127, 14); fill-opacity: 1;"></path><path class="point" d="M3,0A3,3 0 1,1 0,-3A3,3 0 0,1 3,0Z" transform="translate(432.15,40.58)" style="opacity: 1; stroke-width: 0px; fill: rgb(255, 127, 14); fill-opacity: 1;"></path><path class="point" d="M3,0A3,3 0 1,1 0,-3A3,3 0 0,1 3,0Z" transform="translate(488.8,17.25)" style="opacity: 1; stroke-width: 0px; fill: rgb(255, 127, 14); fill-opacity: 1;"></path></g></g><g class="trace scatter tracee68711" style="stroke-miterlimit: 2; opacity: 1;"><g class="points"><path class="point" d="M3,0A3,3 0 1,1 0,-3A3,3 0 0,1 3,0Z" transform="translate(36.2,252.75)" style="opacity: 1; stroke-width: 0px; fill: rgb(44, 160, 44); fill-opacity: 1;"></path><path class="point" d="M3,0A3,3 0 1,1 0,-3A3,3 0 0,1 3,0Z" transform="translate(92.28,215.93)" style="opacity: 1; stroke-width: 0px; fill: rgb(44, 160, 44); fill-opacity: 1;"></path><path class="point" d="M3,0A3,3 0 1,1 0,-3A3,3 0 0,1 3,0Z" transform="translate(233.89,134.23)" style="opacity: 1; stroke-width: 0px; fill: rgb(44, 160, 44); fill-opacity: 1;"></path><path class="point" d="M3,0A3,3 0 1,1 0,-3A3,3 0 0,1 3,0Z" transform="translate(432.15,40.58)" style="opacity: 1; stroke-width: 0px; fill: rgb(44, 160, 44); fill-opacity: 1;"></path><path class="point" d="M3,0A3,3 0 1,1 0,-3A3,3 0 0,1 3,0Z" transform="translate(488.8,17.25)" style="opacity: 1; stroke-width: 0px; fill: rgb(44, 160, 44); fill-opacity: 1;"></path></g></g><g class="trace scatter trace265888" style="stroke-miterlimit: 2; opacity: 1;"><g class="points"></g></g></g></g><g class="overplot"></g><path class="xlines crisp" transform="translate(80,100)" d="M-1,270.5h527" style="fill: none; stroke-width: 1px; stroke: rgb(0, 0, 0); stroke-opacity: 0;"></path><path class="ylines crisp" transform="translate(80,100)" d="M-0.5,-1v271" stroke-width="1px" style="fill: none; stroke: rgb(0, 0, 0); stroke-opacity: 0;"></path><g class="overlines"></g><g class="xaxislayer" transform="translate(80,100)"><g class="xtick" data-bb="1538"><text text-anchor="middle" x="0" y="284" transform="translate(35.63,0)" style="font-family: &quot;Open Sans&quot;, verdana, arial, sans-serif; font-size: 12px; fill: rgb(68, 68, 68); fill-opacity: 1; visibility: inherit; white-space: pre;" data-bb="1532">0</text></g><g class="xtick" data-bb="1539"><text text-anchor="middle" x="0" y="284" transform="translate(148.93,0)" style="font-family: &quot;Open Sans&quot;, verdana, arial, sans-serif; font-size: 12px; fill: rgb(68, 68, 68); fill-opacity: 1; visibility: inherit; white-space: pre;" data-bb="1533">20</text></g><g class="xtick" data-bb="1540"><text text-anchor="middle" x="0" y="284" transform="translate(262.22,0)" style="font-family: &quot;Open Sans&quot;, verdana, arial, sans-serif; font-size: 12px; fill: rgb(68, 68, 68); fill-opacity: 1; visibility: inherit; white-space: pre;" data-bb="1534">40</text></g><g class="xtick" data-bb="1541"><text text-anchor="middle" x="0" y="284" transform="translate(375.51,0)" style="font-family: &quot;Open Sans&quot;, verdana, arial, sans-serif; font-size: 12px; fill: rgb(68, 68, 68); fill-opacity: 1; visibility: inherit; white-space: pre;" data-bb="1535">60</text></g><g class="xtick" data-bb="1542"><text text-anchor="middle" x="0" y="284" transform="translate(488.8,0)" style="font-family: &quot;Open Sans&quot;, verdana, arial, sans-serif; font-size: 12px; fill: rgb(68, 68, 68); fill-opacity: 1; visibility: inherit; white-space: pre;" data-bb="1536">80</text></g></g><g class="yaxislayer" transform="translate(80,100)"><g class="ytick" data-bb="1544"><text text-anchor="end" x="-2" y="6" transform="translate(0,253.13)" style="font-family: &quot;Open Sans&quot;, verdana, arial, sans-serif; font-size: 12px; fill: rgb(68, 68, 68); fill-opacity: 1; visibility: inherit; white-space: pre;">0</text></g><g class="ytick" data-bb="1545"><text text-anchor="end" x="-2" y="6" transform="translate(0,213.24)" style="font-family: &quot;Open Sans&quot;, verdana, arial, sans-serif; font-size: 12px; fill: rgb(68, 68, 68); fill-opacity: 1; visibility: inherit; white-space: pre;">5</text></g><g class="ytick" data-bb="1546"><text text-anchor="end" x="-2" y="6" transform="translate(0,173.35)" style="font-family: &quot;Open Sans&quot;, verdana, arial, sans-serif; font-size: 12px; fill: rgb(68, 68, 68); fill-opacity: 1; visibility: inherit; white-space: pre;">10</text></g><g class="ytick" data-bb="1547"><text text-anchor="end" x="-2" y="6" transform="translate(0,133.45)" style="font-family: &quot;Open Sans&quot;, verdana, arial, sans-serif; font-size: 12px; fill: rgb(68, 68, 68); fill-opacity: 1; visibility: inherit; white-space: pre;">15</text></g><g class="ytick" data-bb="1548"><text text-anchor="end" x="-2" y="6" transform="translate(0,93.56)" style="font-family: &quot;Open Sans&quot;, verdana, arial, sans-serif; font-size: 12px; fill: rgb(68, 68, 68); fill-opacity: 1; visibility: inherit; white-space: pre;">20</text></g><g class="ytick" data-bb="1549"><text text-anchor="end" x="-2" y="6" transform="translate(0,53.66)" style="font-family: &quot;Open Sans&quot;, verdana, arial, sans-serif; font-size: 12px; fill: rgb(68, 68, 68); fill-opacity: 1; visibility: inherit; white-space: pre;">25</text></g><g class="ytick" data-bb="1550"><text text-anchor="end" x="-2" y="6" transform="translate(0,13.77)" style="font-family: &quot;Open Sans&quot;, verdana, arial, sans-serif; font-size: 12px; fill: rgb(68, 68, 68); fill-opacity: 1; visibility: inherit; white-space: pre;">30</text></g></g><g class="overaxes"></g></g></g><g class="ternarylayer"></g><g class="geolayer"></g><g class="layer-above"><g class="imagelayer"></g><g class="shapelayer"></g></g><g class="pielayer"></g><g class="glimages"></g></svg>