<svg class="main-svg" xmlns="http://www.w3.org/2000/svg" xmlns:xlink="http://www.w3.org/1999/xlink" width="808.594" height="450" style="background: rgb(255, 255, 255);"><defs id="defs-12c553"><g class="gradients"></g><g class="clips"><clipPath class="axesclip" id="clip12c553x"><rect x="80" y="0" width="525" height="450"></rect></clipPath><clipPath class="axesclip" id="clip12c553y"><rect x="0" y="100" width="808.594" height="270"></rect></clipPath><clipPath class="axesclip" id="clip12c553xy"><rect x="80" y="100" width="525" height="270"></rect></clipPath><clipPath class="plotclip" id="clip12c553xyplot"><rect width="525" height="270"></rect></clipPath></g></defs><g class="bglayer"><rect class="bg" x="80" y="100" width="525" height="270" style="fill: rgb(255, 255, 255); fill-opacity: 1; stroke-width: 0;"></rect></g><g class="draglayer"><g class="xy" transform="translate(80,100)"><rect class="drag nsewdrag cursor-crosshair" data-subplot="xy" x="0" y="0" width="525" height="270" style="fill: transparent; stroke-width: 0; pointer-events: all;"></rect><rect class="drag nwdrag cursor-nw-resize" data-subplot="xy" x="-20" y="-20" width="20" height="20" style="fill: transparent; stroke-width: 0; pointer-events: all;"></rect><rect class="drag nedrag cursor-ne-resize" data-subplot="xy" x="525" y="-20" width="20" height="20" style="fill: transparent; stroke-width: 0; pointer-events: all;"></rect><rect class="drag swdrag cursor-sw-resize" data-subplot="xy" x="-20" y="270" width="20" height="20" style="fill: transparent; stroke-width: 0; pointer-events: all;"></rect><rect class="drag sedrag cursor-se-resize" data-subplot="xy" x="525" y="270" width="20" height="20" style="fill: transparent; stroke-width: 0; pointer-events: all;"></rect><rect class="drag ewdrag cursor-ew-resize" data-subplot="xy" x="52.5" y="270.5" width="420" height="20" style="fill: transparent; stroke-width: 0; pointer-events: all;"></rect><rect class="drag wdrag cursor-w-resize" data-subplot="xy" x="0" y="270.5" width="52.5" height="20" style="fill: transparent; stroke-width: 0; pointer-events: all;"></rect><rect class="drag edrag cursor-e-resize" data-subplot="xy" x="472.5" y="270.5" width="52.5" height="20" style="fill: transparent; stroke-width: 0; pointer-events: all;"></rect><rect class="drag nsdrag cursor-ns-resize" data-subplot="xy" x="-20.5" y="27" width="20" height="216" style="fill: transparent; stroke-width: 0; pointer-events: all;"></rect><rect class="drag sdrag cursor-s-resize" data-subplot="xy" x="-20.5" y="243" width="20" height="27" style="fill: transparent; stroke-width: 0; pointer-events: all;"></rect><rect class="drag ndrag cursor-n-resize" data-subplot="xy" x="-20.5" y="0" width="20" height="27" style="fill: transparent; stroke-width: 0; pointer-events: all;"></rect></g></g><g class="layer-below"><g class="imagelayer"></g><g class="shapelayer"></g></g><g class="cartesianlayer"><g class="subplot xy"><g class="layer-subplot"><g class="shapelayer"></g><g class="imagelayer"></g></g><g class="gridlayer" transform="translate(80,100)"><path class="xgrid crisp" d="M0,0v270" transform="translate(122.25,0)" style="stroke: rgb(238, 238, 238); stroke-opacity: 1; stroke-width: 1px;"></path><path class="xgrid crisp" d="M0,0v270" transform="translate(215.44,0)" style="stroke: rgb(238, 238, 238); stroke-opacity: 1; stroke-width: 1px;"></path><path class="xgrid crisp" d="M0,0v270" transform="translate(308.63,0)" style="stroke: rgb(238, 238, 238); stroke-opacity: 1; stroke-width: 1px;"></path><path class="xgrid crisp" d="M0,0v270" transform="translate(401.81,0)" style="stroke: rgb(238, 238, 238); stroke-opacity: 1; stroke-width: 1px;"></path><path class="xgrid crisp" d="M0,0v270" transform="translate(495,0)" style="stroke: rgb(238, 238, 238); stroke-opacity: 1; stroke-width: 1px;"></path><path class="ygrid crisp" d="M0,0h525" transform="translate(0,217.06)" style="stroke: rgb(238, 238, 238); stroke-opacity: 1; stroke-width: 1px;"></path><path class="ygrid crisp" d="M0,0h525" transform="translate(0,180.81)" style="stroke: rgb(238, 238, 238); stroke-opacity: 1; stroke-width: 1px;"></path><path class="ygrid crisp" d="M0,0h525" transform="translate(0,144.56)" style="stroke: rgb(238, 238, 238); stroke-opacity: 1; stroke-width: 1px;"></path><path class="ygrid crisp" d="M0,0h525" transform="translate(0,108.31)" style="stroke: rgb(238, 238, 238); stroke-opacity: 1; stroke-width: 1px;"></path><path class="ygrid crisp" d="M0,0h525" transform="translate(0,72.06)" style="stroke: rgb(238, 238, 238); stroke-opacity: 1; stroke-width: 1px;"></path><path class="ygrid crisp" d="M0,0h525" transform="translate(0,35.81)" style="stroke: rgb(238, 238, 238); stroke-opacity: 1; stroke-width: 1px;"></path></g><g class="overgrid"></g><g class="zerolinelayer" transform="translate(80,100)"><path class="xzl zl crisp" d="M0,0v270" transform="translate(29.07,0)" style="stroke: rgb(68, 68, 68); stroke-opacity: 1; stroke-width: 1px;"></path><path class="yzl zl crisp" d="M0,0h525" transform="translate(0,253.31)" style="stroke: rgb(68, 68, 68); stroke-opacity: 1; stroke-width: 1px;"></path></g><g class="overzero"></g><g class="plot" transform="translate(80, 100)" clip-path="url(#clip12c553xyplot)"><g class="imagelayer"></g><g class="maplayer"></g><g class="barlayer"></g><g class="carpetlayer"></g><g class="boxlayer"></g><g class="scatterlayer"><g class="trace scatter tracef4b794" style="stroke-miterlimit: 2; opacity: 1;"><path class="js-line" d="M30,252.98L91.06,216.48L95.76,213.74L156.82,179.04L161.52,176.44L222.58,143.53L227.27,141.07L293.03,107.63L297.73,105.32L354.09,78.31L358.79,76.13L415.15,50.66L419.85,48.61L480.91,22.75L485.61,20.83L495,17.02" style="vector-effect: non-scaling-stroke; fill: none; stroke: rgb(31, 119, 180); stroke-opacity: 1; stroke-width: 2px; opacity: 1;"></path><g class="points"></g></g><g class="trace scatter trace54f80c" style="stroke-miterlimit: 2; opacity: 1;"><g class="points"><path class="point" d="M3,0A3,3 0 1,1 0,-3A3,3 0 0,1 3,0Z" transform="translate(30,252.75)" style="opacity: 1; stroke-width: 0px; fill: rgb(255, 127, 14); fill-opacity: 1;"></path><path class="point" d="M3,0A3,3 0 1,1 0,-3A3,3 0 0,1 3,0Z" transform="translate(38.39,247.74)" style="opacity: 1; stroke-width: 0px; fill: rgb(255, 127, 14); fill-opacity: 1;"></path><path class="point" d="M3,0A3,3 0 1,1 0,-3A3,3 0 0,1 3,0Z" transform="translate(47.71,242.19)" style="opacity: 1; stroke-width: 0px; fill: rgb(255, 127, 14); fill-opacity: 1;"></path><path class="point" d="M3,0A3,3 0 1,1 0,-3A3,3 0 0,1 3,0Z" transform="translate(57.02,236.66)" style="opacity: 1; stroke-width: 0px; fill: rgb(255, 127, 14); fill-opacity: 1;"></path><path class="point" d="M3,0A3,3 0 1,1 0,-3A3,3 0 0,1 3,0Z" transform="translate(66.34,231.16)" style="opacity: 1; stroke-width: 0px; fill: rgb(255, 127, 14); fill-opacity: 1;"></path><path class="point" d="M3,0A3,3 0 1,1 0,-3A3,3 0 0,1 3,0Z" transform="translate(75.66,225.68)" style="opacity: 1; stroke-width: 0px; fill: rgb(255, 127, 14); fill-opacity: 1;"></path><path class="point" d="M3,0A3,3 0 1,1 0,-3A3,3 0 0,1 3,0Z" transform="translate(84.98,220.23)" style="opacity: 1; stroke-width: 0px; fill: rgb(255, 127, 14); fill-opacity: 1;"></path><path class="point" d="M3,0A3,3 0 1,1 0,-3A3,3 0 0,1 3,0Z" transform="translate(103.62,209.41)" style="opacity: 1; stroke-width: 0px; fill: rgb(255, 127, 14); fill-opacity: 1;"></path><path class="point" d="M3,0A3,3 0 1,1 0,-3A3,3 0 0,1 3,0Z" transform="translate(122.25,198.71)" style="opacity: 1; stroke-width: 0px; fill: rgb(255, 127, 14); fill-opacity: 1;"></path><path class="point" d="M3,0A3,3 0 1,1 0,-3A3,3 0 0,1 3,0Z" transform="translate(140.89,188.14)" style="opacity: 1; stroke-width: 0px; fill: rgb(255, 127, 14); fill-opacity: 1;"></path><path class="point" d="M3,0A3,3 0 1,1 0,-3A3,3 0 0,1 3,0Z" transform="translate(178.17,167.4)" style="opacity: 1; stroke-width: 0px; fill: rgb(255, 127, 14); fill-opacity: 1;"></path><path class="point" d="M3,0A3,3 0 1,1 0,-3A3,3 0 0,1 3,0Z" transform="translate(215.44,147.27)" style="opacity: 1; stroke-width: 0px; fill: rgb(255, 127, 14); fill-opacity: 1;"></path><path class="point" d="M3,0A3,3 0 1,1 0,-3A3,3 0 0,1 3,0Z" transform="translate(262.03,122.99)" style="opacity: 1; stroke-width: 0px; fill: rgb(255, 127, 14); fill-opacity: 1;"></path><path class="point" d="M3,0A3,3 0 1,1 0,-3A3,3 0 0,1 3,0Z" transform="translate(308.63,99.75)" style="opacity: 1; stroke-width: 0px; fill: rgb(255, 127, 14); fill-opacity: 1;"></path><path class="point" d="M3,0A3,3 0 1,1 0,-3A3,3 0 0,1 3,0Z" transform="translate(355.22,77.58)" style="opacity: 1; stroke-width: 0px; fill: rgb(255, 127, 14); fill-opacity: 1;"></path><path class="point" d="M3,0A3,3 0 1,1 0,-3A3,3 0 0,1 3,0Z" transform="translate(401.81,56.45)" style="opacity: 1; stroke-width: 0px; fill: rgb(255, 127, 14); fill-opacity: 1;"></path><path class="point" d="M3,0A3,3 0 1,1 0,-3A3,3 0 0,1 3,0Z" transform="translate(448.41,36.35)" style="opacity: 1; stroke-width: 0px; fill: rgb(255, 127, 14); fill-opacity: 1;"></path><path class="point" d="M3,0A3,3 0 1,1 0,-3A3,3 0 0,1 3,0Z" transform="translate(495,17.25)" style="opacity: 1; stroke-width: 0px; fill: rgb(255, 127, 14); fill-opacity: 1;"></path></g></g><g class="trace scatter trace7f4ad6" style="stroke-miterlimit: 2; opacity: 1;"><g class="points"><path class="point" d="M3,0A3,3 0 1,1 0,-3A3,3 0 0,1 3,0Z" transform="translate(30,252.75)" style="opacity: 1; stroke-width: 0px; fill: rgb(44, 160, 44); fill-opacity: 1;"></path><path class="point" d="M3,0A3,3 0 1,1 0,-3A3,3 0 0,1 3,0Z" transform="translate(122.25,198.71)" style="opacity: 1; stroke-width: 0px; fill: rgb(44, 160, 44); fill-opacity: 1;"></path><path class="point" d="M3,0A3,3 0 1,1 0,-3A3,3 0 0,1 3,0Z" transform="translate(308.63,99.75)" style="opacity: 1; stroke-width: 0px; fill: rgb(44, 160, 44); fill-opacity: 1;"></path><path class="point" d="M3,0A3,3 0 1,1 0,-3A3,3 0 0,1 3,0Z" transform="translate(495,17.25)" style="opacity: 1; stroke-width: 0px; fill: rgb(44, 160, 44); fill-opacity: 1;"></path></g></g><g class="trace scatter trace27dc55" style="stroke-miterlimit: 2; opacity: 1;"><path class="js-line" d="M308.63,99.98L308.63,99.75" style="vector-effect: non-scaling-stroke; fill: none; stroke: rgb(214, 39, 40); stroke-opacity: 1; stroke-width: 2px; opacity: 1;"></path><g class="points"></g></g></g></g><g class="overplot"></g><path class="xlines crisp" transform="translate(80,100)" d="M-1,270.5h527" style="fill: none; stroke-width: 1px; stroke: rgb(0, 0, 0); stroke-opacity: 0;"></path><path class="ylines crisp" transform="translate(80,100)" d="M-0.5,-1v271" stroke-width="1px" style="fill: none; stroke: rgb(0, 0, 0); stroke-opacity: 0;"></path><g class="overlines"></g><g class="xaxislayer" transform="translate(80,100)"><g class="xtick" data-bb="6163"><text text-anchor="middle" x="0" y="284" transform="translate(29.07,0)" style="font-family: &quot;Open Sans&quot;, verdana, arial, sans-serif; font-size: 12px; fill: rgb(68, 68, 68); fill-opacity: 1; visibility: inherit; white-space: pre;" data-bb="6156">0</text></g><g class="xtick" data-bb="6164"><text text-anchor="middle" x="0" y="284" transform="translate(122.25,0)" style="font-family: &quot;Open Sans&quot;, verdana, arial, sans-serif; font-size: 12px; fill: rgb(68, 68, 68); fill-opacity: 1; visibility: inherit; white-space: pre;" data-bb="6157">10</text></g><g class="xtick" data-bb="6165"><text text-anchor="middle" x="0" y="284" transform="translate(215.44,0)" style="font-family: &quot;Open Sans&quot;, verdana, arial, sans-serif; font-size: 12px; fill: rgb(68, 68, 68); fill-opacity: 1; visibility: inherit; white-space: pre;" data-bb="6158">20</text></g><g class="xtick" data-bb="6166"><text text-anchor="middle" x="0" y="284" transform="translate(308.63,0)" style="font-family: &quot;Open Sans&quot;, verdana, arial, sans-serif; font-size: 12px; fill: rgb(68, 68, 68); fill-opacity: 1; visibility: inherit; white-space: pre;" data-bb="6159">30</text></g><g class="xtick" data-bb="6167"><text text-anchor="middle" x="0" y="284" transform="translate(401.81,0)" style="font-family: &quot;Open Sans&quot;, verdana, arial, sans-serif; font-size: 12px; fill: rgb(68, 68, 68); fill-opacity: 1; visibility: inherit; white-space: pre;" data-bb="6160">40</text></g><g class="xtick" data-bb="6168"><text text-anchor="middle" x="0" y="284" transform="translate(495,0)" style="font-family: &quot;Open Sans&quot;, verdana, arial, sans-serif; font-size: 12px; fill: rgb(68, 68, 68); fill-opacity: 1; visibility: inherit; white-space: pre;" data-bb="6161">50</text></g></g><g class="yaxislayer" transform="translate(80,100)"><g class="ytick" data-bb="6170"><text text-anchor="end" x="-2" y="6" transform="translate(0,253.31)" style="font-family: &quot;Open Sans&quot;, verdana, arial, sans-serif; font-size: 12px; fill: rgb(68, 68, 68); fill-opacity: 1; visibility: inherit; white-space: pre;">0</text></g><g class="ytick" data-bb="6171"><text text-anchor="end" x="-2" y="6" transform="translate(0,217.06)" style="font-family: &quot;Open Sans&quot;, verdana, arial, sans-serif; font-size: 12px; fill: rgb(68, 68, 68); fill-opacity: 1; visibility: inherit; white-space: pre;">50</text></g><g class="ytick" data-bb="6172"><text text-anchor="end" x="-2" y="6" transform="translate(0,180.81)" style="font-family: &quot;Open Sans&quot;, verdana, arial, sans-serif; font-size: 12px; fill: rgb(68, 68, 68); fill-opacity: 1; visibility: inherit; white-space: pre;">100</text></g><g class="ytick" data-bb="6173"><text text-anchor="end" x="-2" y="6" transform="translate(0,144.56)" style="font-family: &quot;Open Sans&quot;, verdana, arial, sans-serif; font-size: 12px; fill: rgb(68, 68, 68); fill-opacity: 1; visibility: inherit; white-space: pre;">150</text></g><g class="ytick" data-bb="6174"><text text-anchor="end" x="-2" y="6" transform="translate(0,108.31)" style="font-family: &quot;Open Sans&quot;, verdana, arial, sans-serif; font-size: 12px; fill: rgb(68, 68, 68); fill-opacity: 1; visibility: inherit; white-space: pre;">200</text></g><g class="ytick" data-bb="6175"><text text-anchor="end" x="-2" y="6" transform="translate(0,72.06)" style="font-family: &quot;Open Sans&quot;, verdana, arial, sans-serif; font-size: 12px; fill: rgb(68, 68, 68); fill-opacity: 1; visibility: inherit; white-space: pre;">250</text></g><g class="ytick" data-bb="6176"><text text-anchor="end" x="-2" y="6" transform="translate(0,35.81)" style="font-family: &quot;Open Sans&quot;, verdana, arial, sans-serif; font-size: 12px; fill: rgb(68, 68, 68); fill-opacity: 1; visibility: inherit; white-space: pre;">300</text></g></g><g class="overaxes"></g></g></g><g class="ternarylayer"></g><g class="geolayer"></g><g class="layer-above"><g class="imagelayer"></g><g class="shapelayer"></g></g><g class="pielayer"></g><g class="glimages"></g></svg>