<svg class="main-svg" xmlns="http://www.w3.org/2000/svg" xmlns:xlink="http://www.w3.org/1999/xlink" width="808.594" height="450" style="background: rgb(255, 255, 255);"><defs id="defs-254b68"><g class="gradients"></g><g class="clips"><clipPath class="axesclip" id="clip254b68x"><rect x="80" y="0" width="649" height="450"></rect></clipPath><clipPath class="axesclip" id="clip254b68y"><rect x="0" y="100" width="808.594" height="270"></rect></clipPath><clipPath class="axesclip" id="clip254b68xy"><rect x="80" y="100" width="649" height="270"></rect></clipPath><clipPath class="plotclip" id="clip254b68xyplot"><rect width="649" height="270"></rect></clipPath></g></defs><g class="bglayer"><rect class="bg" x="80" y="100" width="649" height="270" style="fill: rgb(255, 255, 255); fill-opacity: 1; stroke-width: 0;"></rect></g><g class="draglayer"><g class="xy" transform="translate(80,100)"><rect class="drag nsewdrag cursor-crosshair" data-subplot="xy" x="0" y="0" width="649" height="270" style="fill: transparent; stroke-width: 0; pointer-events: all;"></rect><rect class="drag nwdrag cursor-nw-resize" data-subplot="xy" x="-20" y="-20" width="20" height="20" style="fill: transparent; stroke-width: 0; pointer-events: all;"></rect><rect class="drag nedrag cursor-ne-resize" data-subplot="xy" x="649" y="-20" width="20" height="20" style="fill: transparent; stroke-width: 0; pointer-events: all;"></rect><rect class="drag swdrag cursor-sw-resize" data-subplot="xy" x="-20" y="270" width="20" height="20" style="fill: transparent; stroke-width: 0; pointer-events: all;"></rect><rect class="drag sedrag cursor-se-resize" data-subplot="xy" x="649" y="270" width="20" height="20" style="fill: transparent; stroke-width: 0; pointer-events: all;"></rect><rect class="drag ewdrag cursor-ew-resize" data-subplot="xy" x="64.9" y="270.5" width="519.2" height="20" style="fill: transparent; stroke-width: 0; pointer-events: all;"></rect><rect class="drag wdrag cursor-w-resize" data-subplot="xy" x="0" y="270.5" width="64.9" height="20" style="fill: transparent; stroke-width: 0; pointer-events: all;"></rect><rect class="drag edrag cursor-e-resize" data-subplot="xy" x="584.1" y="270.5" width="64.9" height="20" style="fill: transparent; stroke-width: 0; pointer-events: all;"></rect><rect class="drag nsdrag cursor-ns-resize" data-subplot="xy" x="-20.5" y="27" width="20" height="216" style="fill: transparent; stroke-width: 0; pointer-events: all;"></rect><rect class="drag sdrag cursor-s-resize" data-subplot="xy" x="-20.5" y="243" width="20" height="27" style="fill: transparent; stroke-width: 0; pointer-events: all;"></rect><rect class="drag ndrag cursor-n-resize" data-subplot="xy" x="-20.5" y="0" width="20" height="27" style="fill: transparent; stroke-width: 0; pointer-events: all;"></rect></g></g><g class="layer-below"><g class="imagelayer"></g><g class="shapelayer"></g></g><g class="cartesianlayer"><g class="subplot xy"><g class="layer-subplot"><g class="shapelayer"></g><g class="imagelayer"></g></g><g class="gridlayer" transform="translate(80,100)"><path class="xgrid crisp" d="M0,0v270" transform="translate(162.25,0)" style="stroke: rgb(238, 238, 238); stroke-opacity: 1; stroke-width: 1px;"></path><path class="xgrid crisp" d="M0,0v270" transform="translate(324.5,0)" style="stroke: rgb(238, 238, 238); stroke-opacity: 1; stroke-width: 1px;"></path><path class="xgrid crisp" d="M0,0v270" transform="translate(486.75,0)" style="stroke: rgb(238, 238, 238); stroke-opacity: 1; stroke-width: 1px;"></path><path class="ygrid crisp" d="M0,0h649" transform="translate(0,216.87)" style="stroke: rgb(238, 238, 238); stroke-opacity: 1; stroke-width: 1px;"></path><path class="ygrid crisp" d="M0,0h649" transform="translate(0,53.13)" style="stroke: rgb(238, 238, 238); stroke-opacity: 1; stroke-width: 1px;"></path></g><g class="overgrid"></g><g class="zerolinelayer" transform="translate(80,100)"><path class="yzl zl crisp" d="M0,0h649" transform="translate(0,135)" style="stroke: rgb(68, 68, 68); stroke-opacity: 1; stroke-width: 1px;"></path></g><g class="overzero"></g><g class="plot" transform="translate(80, 100)" clip-path="url(#clip254b68xyplot)"><g class="imagelayer"></g><g class="maplayer"></g><g class="barlayer"></g><g class="carpetlayer"></g><g class="boxlayer"></g><g class="scatterlayer"><g class="trace scatter trace8492ef" style="stroke-miterlimit: 2; opacity: 1;"><path class="js-line" d="M0,256.5L16.64,220.74L33.28,188.88L49.92,160.56L66.56,135.48L83.21,113.37L99.85,93.99L116.49,77.13L133.13,62.61L149.77,50.25L166.41,39.9L183.05,31.44L199.69,24.74L216.33,19.7L232.97,16.2L249.62,14.16L266.26,13.5L282.9,14.14L299.54,16.01L316.18,19.04L332.82,23.18L349.46,28.37L366.1,34.55L382.74,41.69L399.38,49.73L432.67,68.38L449.31,78.91L482.59,102.2L499.23,114.91L532.51,142.3L549.15,156.94L582.44,187.97L599.08,204.32L632.36,238.61L649,256.5" style="vector-effect: non-scaling-stroke; fill: none; stroke: rgb(31, 119, 180); stroke-opacity: 1; stroke-width: 2px; opacity: 1;"></path><g class="points"></g></g></g></g><g class="overplot"></g><path class="xlines crisp" transform="translate(80,100)" d="M-1,270.5h651" style="fill: none; stroke-width: 1px; stroke: rgb(0, 0, 0); stroke-opacity: 0;"></path><path class="ylines crisp" transform="translate(80,100)" d="M-0.5,-1v271" stroke-width="1px" style="fill: none; stroke: rgb(0, 0, 0); stroke-opacity: 0;"></path><g class="overlines"></g><g class="xaxislayer" transform="translate(80,100)"><g class="xtick" data-bb="6753"><text text-anchor="middle" x="0" y="284" transform="translate(0,0)" style="font-family: &quot;Open Sans&quot;, verdana, arial, sans-serif; font-size: 12px; fill: rgb(68, 68, 68); fill-opacity: 1; visibility: inherit; white-space: pre;" data-bb="6747">1</text></g><g class="xtick" data-bb="6754"><text text-anchor="middle" x="0" y="284" transform="translate(162.25,0)" style="font-family: &quot;Open Sans&quot;, verdana, arial, sans-serif; font-size: 12px; fill: rgb(68, 68, 68); fill-opacity: 1; visibility: inherit; white-space: pre;" data-bb="6748">1.5</text></g><g class="xtick" data-bb="6755"><text text-anchor="middle" x="0" y="284" transform="translate(324.5,0)" style="font-family: &quot;Open Sans&quot;, verdana, arial, sans-serif; font-size: 12px; fill: rgb(68, 68, 68); fill-opacity: 1; visibility: inherit; white-space: pre;" data-bb="6749">2</text></g><g class="xtick" data-bb="6756"><text text-anchor="middle" x="0" y="284" transform="translate(486.75,0)" style="font-family: &quot;Open Sans&quot;, verdana, arial, sans-serif; font-size: 12px; fill: rgb(68, 68, 68); fill-opacity: 1; visibility: inherit; white-space: pre;" data-bb="6750">2.5</text></g><g class="xtick" data-bb="6757"><text text-anchor="middle" x="0" y="284" transform="translate(649,0)" style="font-family: &quot;Open Sans&quot;, verdana, arial, sans-serif; font-size: 12px; fill: rgb(68, 68, 68); fill-opacity: 1; visibility: inherit; white-space: pre;" data-bb="6751">3</text></g></g><g class="yaxislayer" transform="translate(80,100)"><g class="ytick" data-bb="6759"><text text-anchor="end" x="-2" y="6" transform="translate(0,216.87)" style="font-family: &quot;Open Sans&quot;, verdana, arial, sans-serif; font-size: 12px; fill: rgb(68, 68, 68); fill-opacity: 1; visibility: inherit; white-space: pre;">−0.05</text></g><g class="ytick" data-bb="6760"><text text-anchor="end" x="-2" y="6" transform="translate(0,135)" style="font-family: &quot;Open Sans&quot;, verdana, arial, sans-serif; font-size: 12px; fill: rgb(68, 68, 68); fill-opacity: 1; visibility: inherit; white-space: pre;">0</text></g><g class="ytick" data-bb="6761"><text text-anchor="end" x="-2" y="6" transform="translate(0,53.13)" style="font-family: &quot;Open Sans&quot;, verdana, arial, sans-serif; font-size: 12px; fill: rgb(68, 68, 68); fill-opacity: 1; visibility: inherit; white-space: pre;">0.05</text></g></g><g class="overaxes"></g></g></g><g class="ternarylayer"></g><g class="geolayer"></g><g class="layer-above"><g class="imagelayer"></g><g class="shapelayer"></g></g><g class="pielayer"></g><g class="glimages"></g></svg>