<svg class="main-svg" xmlns="http://www.w3.org/2000/svg" xmlns:xlink="http://www.w3.org/1999/xlink" width="808.594" height="450" style="background: rgb(255, 255, 255);"><defs id="defs-05ea02"><g class="gradients"></g><g class="clips"><clipPath class="axesclip" id="clip05ea02x"><rect x="80" y="0" width="649" height="450"></rect></clipPath><clipPath class="axesclip" id="clip05ea02y"><rect x="0" y="100" width="808.594" height="270"></rect></clipPath><clipPath class="axesclip" id="clip05ea02xy"><rect x="80" y="100" width="649" height="270"></rect></clipPath><clipPath class="plotclip" id="clip05ea02xyplot"><rect width="649" height="270"></rect></clipPath></g></defs><g class="bglayer"><rect class="bg" x="80" y="100" width="649" height="270" style="fill: rgb(255, 255, 255); fill-opacity: 1; stroke-width: 0;"></rect></g><g class="draglayer"><g class="xy" transform="translate(80,100)"><rect class="drag nsewdrag cursor-crosshair" data-subplot="xy" x="0" y="0" width="649" height="270" style="fill: transparent; stroke-width: 0; pointer-events: all;"></rect><rect class="drag nwdrag cursor-nw-resize" data-subplot="xy" x="-20" y="-20" width="20" height="20" style="fill: transparent; stroke-width: 0; pointer-events: all;"></rect><rect class="drag nedrag cursor-ne-resize" data-subplot="xy" x="649" y="-20" width="20" height="20" style="fill: transparent; stroke-width: 0; pointer-events: all;"></rect><rect class="drag swdrag cursor-sw-resize" data-subplot="xy" x="-20" y="270" width="20" height="20" style="fill: transparent; stroke-width: 0; pointer-events: all;"></rect><rect class="drag sedrag cursor-se-resize" data-subplot="xy" x="649" y="270" width="20" height="20" style="fill: transparent; stroke-width: 0; pointer-events: all;"></rect><rect class="drag ewdrag cursor-ew-resize" data-subplot="xy" x="64.9" y="270.5" width="519.2" height="20" style="fill: transparent; stroke-width: 0; pointer-events: all;"></rect><rect class="drag wdrag cursor-w-resize" data-subplot="xy" x="0" y="270.5" width="64.9" height="20" style="fill: transparent; stroke-width: 0; pointer-events: all;"></rect><rect class="drag edrag cursor-e-resize" data-subplot="xy" x="584.1" y="270.5" width="64.9" height="20" style="fill: transparent; stroke-width: 0; pointer-events: all;"></rect><rect class="drag nsdrag cursor-ns-resize" data-subplot="xy" x="-20.5" y="27" width="20" height="216" style="fill: transparent; stroke-width: 0; pointer-events: all;"></rect><rect class="drag sdrag cursor-s-resize" data-subplot="xy" x="-20.5" y="243" width="20" height="27" style="fill: transparent; stroke-width: 0; pointer-events: all;"></rect><rect class="drag ndrag cursor-n-resize" data-subplot="xy" x="-20.5" y="0" width="20" height="27" style="fill: transparent; stroke-width: 0; pointer-events: all;"></rect></g></g><g class="layer-below"><g class="imagelayer"></g><g class="shapelayer"></g></g><g class="cartesianlayer"><g class="subplot xy"><g class="layer-subplot"><g class="shapelayer"></g><g class="imagelayer"></g></g><g class="gridlayer" transform="translate(80,100)"><path class="xgrid crisp" d="M0,0v270" transform="translate(81.13,0)" style="stroke: rgb(238, 238, 238); stroke-opacity: 1; stroke-width: 1px;"></path><path class="xgrid crisp" d="M0,0v270" transform="translate(243.38,0)" style="stroke: rgb(238, 238, 238); stroke-opacity: 1; stroke-width: 1px;"></path><path class="xgrid crisp" d="M0,0v270" transform="translate(324.5,0)" style="stroke: rgb(238, 238, 238); stroke-opacity: 1; stroke-width: 1px;"></path><path class="xgrid crisp" d="M0,0v270" transform="translate(405.63,0)" style="stroke: rgb(238, 238, 238); stroke-opacity: 1; stroke-width: 1px;"></path><path class="xgrid crisp" d="M0,0v270" transform="translate(486.75,0)" style="stroke: rgb(238, 238, 238); stroke-opacity: 1; stroke-width: 1px;"></path><path class="xgrid crisp" d="M0,0v270" transform="translate(567.88,0)" style="stroke: rgb(238, 238, 238); stroke-opacity: 1; stroke-width: 1px;"></path><path class="ygrid crisp" d="M0,0h649" transform="translate(0,243.19)" style="stroke: rgb(238, 238, 238); stroke-opacity: 1; stroke-width: 1px;"></path><path class="ygrid crisp" d="M0,0h649" transform="translate(0,205.23)" style="stroke: rgb(238, 238, 238); stroke-opacity: 1; stroke-width: 1px;"></path><path class="ygrid crisp" d="M0,0h649" transform="translate(0,167.27)" style="stroke: rgb(238, 238, 238); stroke-opacity: 1; stroke-width: 1px;"></path><path class="ygrid crisp" d="M0,0h649" transform="translate(0,129.32)" style="stroke: rgb(238, 238, 238); stroke-opacity: 1; stroke-width: 1px;"></path><path class="ygrid crisp" d="M0,0h649" transform="translate(0,53.41)" style="stroke: rgb(238, 238, 238); stroke-opacity: 1; stroke-width: 1px;"></path><path class="ygrid crisp" d="M0,0h649" transform="translate(0,15.45)" style="stroke: rgb(238, 238, 238); stroke-opacity: 1; stroke-width: 1px;"></path></g><g class="overgrid"></g><g class="zerolinelayer" transform="translate(80,100)"><path class="xzl zl crisp" d="M0,0v270" transform="translate(162.25,0)" style="stroke: rgb(68, 68, 68); stroke-opacity: 1; stroke-width: 1px;"></path><path class="yzl zl crisp" d="M0,0h649" transform="translate(0,91.36)" style="stroke: rgb(68, 68, 68); stroke-opacity: 1; stroke-width: 1px;"></path></g><g class="overzero"></g><g class="plot" transform="translate(80, 100)" clip-path="url(#clip05ea02xyplot)"><g class="imagelayer"></g><g class="maplayer"></g><g class="barlayer"></g><g class="carpetlayer"></g><g class="boxlayer"></g><g class="scatterlayer"><g class="trace scatter trace170198" style="stroke-miterlimit: 2; opacity: 1;"><path class="js-line" d="M0,15.29L8.22,45.86L16.43,73.13L24.65,97.24L32.86,118.35L41.08,136.61L49.29,152.16L57.51,165.15L65.72,175.73L73.94,184.04L82.15,190.22L90.37,194.42L98.58,196.78L106.8,197.43L115.01,196.51L123.23,194.16L131.44,190.5L139.66,185.68L147.87,179.82L164.3,165.48L172.52,157.25L188.95,139.27L197.16,129.75L246.46,72.02L254.67,63.23L271.1,47.16L279.32,40.05L295.75,28.02L303.96,23.23L312.18,19.34L320.39,16.39L328.61,14.43L336.82,13.5L345.04,13.62L353.25,14.82L361.47,17.11L369.68,20.5L377.9,24.99L386.11,30.57L394.33,37.21L402.54,44.89L418.97,63.2L427.19,73.71L443.62,97.06L451.84,109.71L476.48,150.17L484.7,163.99L509.34,203.97L517.56,216.07L525.77,227.15L533.99,236.92L542.2,245.09L550.42,251.31L558.63,255.24L566.85,256.5L575.06,254.67L583.28,249.31L591.49,239.96L599.71,226.1L607.92,207.19L616.14,182.65L624.35,151.88L632.57,114.2L640.78,68.92L649,15.29" style="vector-effect: non-scaling-stroke; fill: none; stroke: rgb(31, 119, 180); stroke-opacity: 1; stroke-width: 2px; opacity: 1;"></path><g class="points"></g></g></g></g><g class="overplot"></g><path class="xlines crisp" transform="translate(80,100)" d="M-1,270.5h651" style="fill: none; stroke-width: 1px; stroke: rgb(0, 0, 0); stroke-opacity: 0;"></path><path class="ylines crisp" transform="translate(80,100)" d="M-0.5,-1v271" stroke-width="1px" style="fill: none; stroke: rgb(0, 0, 0); stroke-opacity: 0;"></path><g class="overlines"></g><g class="xaxislayer" transform="translate(80,100)"><g class="xtick" data-bb="7478"><text text-anchor="middle" x="0" y="284" transform="translate(0,0)" style="font-family: &quot;Open Sans&quot;, verdana, arial, sans-serif; font-size: 12px; fill: rgb(68, 68, 68); fill-opacity: 1; visibility: inherit; white-space: pre;" data-bb="7468">−1</text></g><g class="xtick" data-bb="7479"><text text-anchor="middle" x="0" y="284" transform="translate(81.13,0)" style="font-family: &quot;Open Sans&quot;, verdana, arial, sans-serif; font-size: 12px; fill: rgb(68, 68, 68); fill-opacity: 1; visibility: inherit; white-space: pre;" data-bb="7469">−0.5</text></g><g class="xtick" data-bb="7480"><text text-anchor="middle" x="0" y="284" transform="translate(162.25,0)" style="font-family: &quot;Open Sans&quot;, verdana, arial, sans-serif; font-size: 12px; fill: rgb(68, 68, 68); fill-opacity: 1; visibility: inherit; white-space: pre;" data-bb="7470">0</text></g><g class="xtick" data-bb="7481"><text text-anchor="middle" x="0" y="284" transform="translate(243.38,0)" style="font-family: &quot;Open Sans&quot;, verdana, arial, sans-serif; font-size: 12px; fill: rgb(68, 68, 68); fill-opacity: 1; visibility: inherit; white-space: pre;" data-bb="7471">0.5</text></g><g class="xtick" data-bb="7482"><text text-anchor="middle" x="0" y="284" transform="translate(324.5,0)" style="font-family: &quot;Open Sans&quot;, verdana, arial, sans-serif; font-size: 12px; fill: rgb(68, 68, 68); fill-opacity: 1; visibility: inherit; white-space: pre;" data-bb="7472">1</text></g><g class="xtick" data-bb="7483"><text text-anchor="middle" x="0" y="284" transform="translate(405.63,0)" style="font-family: &quot;Open Sans&quot;, verdana, arial, sans-serif; font-size: 12px; fill: rgb(68, 68, 68); fill-opacity: 1; visibility: inherit; white-space: pre;" data-bb="7473">1.5</text></g><g class="xtick" data-bb="7484"><text text-anchor="middle" x="0" y="284" transform="translate(486.75,0)" style="font-family: &quot;Open Sans&quot;, verdana, arial, sans-serif; font-size: 12px; fill: rgb(68, 68, 68); fill-opacity: 1; visibility: inherit; white-space: pre;" data-bb="7474">2</text></g><g class="xtick" data-bb="7485"><text text-anchor="middle" x="0" y="284" transform="translate(567.88,0)" style="font-family: &quot;Open Sans&quot;, verdana, arial, sans-serif; font-size: 12px; fill: rgb(68, 68, 68); fill-opacity: 1; visibility: inherit; white-space: pre;" data-bb="7475">2.5</text></g><g class="xtick" data-bb="7486"><text text-anchor="middle" x="0" y="284" transform="translate(649,0)" style="font-family: &quot;Open Sans&quot;, verdana, arial, sans-serif; font-size: 12px; fill: rgb(68, 68, 68); fill-opacity: 1; visibility: inherit; white-space: pre;" data-bb="7476">3</text></g></g><g class="yaxislayer" transform="translate(80,100)"><g class="ytick" data-bb="7488"><text text-anchor="end" x="-2" y="6" transform="translate(0,243.19)" style="font-family: &quot;Open Sans&quot;, verdana, arial, sans-serif; font-size: 12px; fill: rgb(68, 68, 68); fill-opacity: 1; visibility: inherit; white-space: pre;">−0.4</text></g><g class="ytick" data-bb="7489"><text text-anchor="end" x="-2" y="6" transform="translate(0,205.23)" style="font-family: &quot;Open Sans&quot;, verdana, arial, sans-serif; font-size: 12px; fill: rgb(68, 68, 68); fill-opacity: 1; visibility: inherit; white-space: pre;">−0.3</text></g><g class="ytick" data-bb="7490"><text text-anchor="end" x="-2" y="6" transform="translate(0,167.27)" style="font-family: &quot;Open Sans&quot;, verdana, arial, sans-serif; font-size: 12px; fill: rgb(68, 68, 68); fill-opacity: 1; visibility: inherit; white-space: pre;">−0.2</text></g><g class="ytick" data-bb="7491"><text text-anchor="end" x="-2" y="6" transform="translate(0,129.32)" style="font-family: &quot;Open Sans&quot;, verdana, arial, sans-serif; font-size: 12px; fill: rgb(68, 68, 68); fill-opacity: 1; visibility: inherit; white-space: pre;">−0.1</text></g><g class="ytick" data-bb="7492"><text text-anchor="end" x="-2" y="6" transform="translate(0,91.36)" style="font-family: &quot;Open Sans&quot;, verdana, arial, sans-serif; font-size: 12px; fill: rgb(68, 68, 68); fill-opacity: 1; visibility: inherit; white-space: pre;">0</text></g><g class="ytick" data-bb="7493"><text text-anchor="end" x="-2" y="6" transform="translate(0,53.41)" style="font-family: &quot;Open Sans&quot;, verdana, arial, sans-serif; font-size: 12px; fill: rgb(68, 68, 68); fill-opacity: 1; visibility: inherit; white-space: pre;">0.1</text></g><g class="ytick" data-bb="7494"><text text-anchor="end" x="-2" y="6" transform="translate(0,15.45)" style="font-family: &quot;Open Sans&quot;, verdana, arial, sans-serif; font-size: 12px; fill: rgb(68, 68, 68); fill-opacity: 1; visibility: inherit; white-space: pre;">0.2</text></g></g><g class="overaxes"></g></g></g><g class="ternarylayer"></g><g class="geolayer"></g><g class="layer-above"><g class="imagelayer"></g><g class="shapelayer"></g></g><g class="pielayer"></g><g class="glimages"></g></svg>